<?xml version="1.0" encoding="utf-8"?>
<!-- Generator: Adobe Illustrator 28.1.0, SVG Export Plug-In . SVG Version: 6.00 Build 0)  -->
<svg version="1.1" id="Layer_2_00000133503056242588701370000004145271266701524649_"
	 xmlns="http://www.w3.org/2000/svg" xmlns:xlink="http://www.w3.org/1999/xlink" x="0px" y="0px" viewBox="0 0 300 300.2"
	 style="enable-background:new 0 0 300 300.2;" xml:space="preserve">
<style type="text/css">
	.st0{fill:#FFFFFF;}
</style>
<g id="Layer_1-2">
	<path class="st0" d="M28.9,1H271c15.5,0,28,12.5,28,27.9v242.4c0,15.4-12.5,27.9-27.9,27.9H28.9C13.5,299.2,1,286.9,1,271.3V28.9
		C1.1,13.5,13.5,1,28.9,1z"/>
	<path d="M171.9,129.2l88.6-100.9c5.1-5.8,1-15-6.8-15l0,0c-2.7,0-5.1,1.1-6.8,3.1l-78.1,88.9c-3.8,4.4-10.8,4-14.2-0.9L93.2,17.1
		c-1.7-2.4-4.5-3.8-7.4-3.8H26.5c-7.3,0-11.7,8.3-7.4,14.2l92.7,132.1c2.4,3.4,2.2,8-0.7,11.2L22.3,271.9c-5.1,5.8-1,15,6.8,15l0,0
		c2.7,0,5.1-1.1,6.8-3.1l83.1-94.6c3.8-4.4,10.8-4,14.2,0.9l65.2,93c1.7,2.5,4.5,3.8,7.4,3.8h76.6 M41.9,31h32.4
		c2.9,0,5.7,1.4,7.4,3.8l157.7,220.9c4.3,6,0,14.3-7.4,14.3h-19.5"/>
</g>
</svg>
